<?xml version="1.0" standalone="no"?>
<!DOCTYPE svg PUBLIC "-//W3C//DTD SVG 20010904//EN"
 "http://www.w3.org/TR/2001/REC-SVG-20010904/DTD/svg10.dtd">
<svg version="1.0" xmlns="http://www.w3.org/2000/svg"
 width="325.000000pt" height="498.000000pt" viewBox="0 0 325.000000 498.000000"
 preserveAspectRatio="xMidYMid meet">

<g transform="translate(0.000000,498.000000) scale(0.100000,-0.100000)"
fill="#000000" stroke="none">
<path d="M1392 4959 c53 -142 72 -272 64 -444 -8 -183 -27 -280 -70 -372 -31
-64 -56 -95 -167 -207 -240 -240 -365 -437 -431 -676 -20 -74 -23 -107 -23
-260 1 -148 4 -187 23 -255 35 -131 118 -315 141 -315 4 0 23 5 40 11 29 10
32 15 26 38 -17 66 -17 241 0 316 24 109 91 234 177 334 108 124 103 113 103
215 0 50 -3 106 -7 124 -4 17 -4 32 1 32 8 0 54 -54 122 -143 l17 -21 47 38
c26 22 56 48 66 60 34 36 66 118 89 225 19 87 22 123 17 215 -3 61 -9 122 -12
136 -13 52 218 -215 326 -377 29 -43 53 -79 55 -81 1 -2 26 4 55 12 29 9 54
16 56 16 1 0 -11 -26 -28 -58 l-30 -58 55 -105 c147 -279 238 -608 219 -789
-4 -41 -8 -79 -8 -84 0 -5 19 -17 42 -27 l42 -18 35 72 c132 277 143 570 31
902 -150 451 -445 923 -824 1318 -112 117 -257 249 -249 226z"/>
<path d="M1215 4266 c-604 -158 -1063 -650 -1187 -1271 -18 -89 -22 -146 -23
-300 0 -220 15 -321 75 -506 66 -203 152 -361 286 -527 l66 -83 25 54 24 54
-64 85 c-140 186 -226 374 -279 609 -20 90 -23 131 -23 309 0 230 10 294 73
485 94 286 288 552 537 738 112 84 337 197 469 235 l100 29 18 54 c9 30 18 55
18 57 0 5 -31 0 -115 -22z"/>
<path d="M2182 4163 l30 -68 97 -47 c300 -144 585 -446 716 -757 43 -102 79
-220 102 -336 24 -124 24 -405 0 -530 -40 -207 -126 -418 -236 -580 -29 -42
-46 -77 -41 -80 6 -4 20 -25 31 -47 l21 -42 19 25 c152 193 267 458 310 711
18 107 21 150 16 323 -6 218 -20 307 -77 478 -143 428 -480 793 -897 971 -132
57 -127 58 -91 -21z"/>
<path d="M1638 3013 c-14 -3 -15 -9 -8 -29 13 -34 15 -31 -25 -44 -19 -6 -35
-16 -35 -21 0 -5 -18 -12 -40 -15 -34 -6 -38 -9 -28 -21 6 -8 29 -24 51 -35
33 -16 44 -18 65 -9 21 10 28 9 46 -8 21 -20 22 -20 35 -2 11 14 22 17 57 13
37 -4 51 0 87 24 l42 28 -39 8 c-22 5 -44 12 -50 17 -6 4 -23 11 -38 15 -30 7
-35 24 -18 57 9 17 7 19 -17 19 -15 0 -37 2 -48 4 -11 2 -28 2 -37 -1z"/>
<path d="M1558 2665 c-67 -29 -274 -117 -458 -195 -184 -78 -341 -145 -348
-149 -8 -5 51 -31 146 -65 l159 -58 39 20 c253 126 584 161 849 90 88 -24 232
-79 283 -108 l32 -20 184 68 c102 37 184 68 183 68 -2 2 -762 325 -879 374
l-66 28 -124 -53z"/>
<path d="M1530 2270 c-120 -9 -191 -24 -307 -61 l-93 -31 0 -139 c0 -76 1
-139 3 -139 2 0 43 14 93 30 137 47 247 63 424 63 175 0 256 -14 415 -69 55
-19 108 -38 118 -41 16 -5 17 6 17 134 l0 139 -72 28 c-113 44 -252 76 -378
86 -63 5 -117 9 -120 8 -3 0 -48 -4 -100 -8z"/>
<path d="M1555 1845 c-82 -18 -141 -47 -202 -100 -95 -84 -137 -188 -136 -345
1 -114 21 -190 69 -263 88 -131 228 -194 414 -184 121 6 201 35 272 96 51 45
108 123 108 148 0 7 -56 41 -125 75 l-124 62 -38 -41 c-132 -142 -336 22 -247
199 44 88 179 99 243 21 l31 -37 130 64 c71 35 130 67 130 70 0 3 -13 26 -29
51 -102 159 -291 229 -496 184z"/>
<path d="M1078 1830 c-15 -4 -44 -18 -63 -30 -30 -19 -35 -27 -31 -49 3 -14 7
-57 11 -96 3 -38 8 -82 11 -97 l6 -28 -101 0 c-98 0 -101 1 -100 23 0 12 6 77
13 145 l12 122 -123 0 -123 0 0 -415 0 -415 160 2 160 3 3 180 c2 171 3 182
27 225 34 59 90 98 168 112 l62 12 0 158 0 158 -32 -1 c-18 0 -45 -4 -60 -9z"/>
<path d="M2412 1825 c-102 -32 -178 -120 -203 -235 l-11 -50 -54 0 -54 0 0
-135 0 -135 55 0 55 0 0 -285 0 -285 165 0 165 0 0 285 0 285 115 0 115 0 0
135 0 135 -120 0 c-66 0 -120 3 -120 6 0 17 25 46 52 60 30 16 108 15 151 -2
11 -4 17 11 26 71 20 135 22 131 -58 149 -84 19 -220 20 -279 1z"/>
<path d="M580 821 c0 -114 1 -121 20 -121 17 0 20 7 20 45 0 58 20 60 58 5 25
-37 65 -60 79 -47 3 3 -9 24 -26 45 -37 47 -37 47 -11 79 44 57 13 100 -77
109 l-63 7 0 -122z m113 57 c15 -23 -8 -48 -44 -48 -25 0 -29 4 -29 28 0 16 3
32 7 36 12 12 55 2 66 -16z"/>
<path d="M1030 905 c0 -33 -2 -35 -35 -35 -40 0 -74 -28 -76 -62 -4 -88 13
-108 92 -105 l59 1 0 118 c0 111 -1 118 -20 118 -16 0 -20 -7 -20 -35z m-12
-77 c14 -14 16 -57 3 -76 -4 -8 -19 -12 -32 -10 -19 2 -25 10 -27 36 -5 50 27
79 56 50z"/>
<path d="M1940 905 c0 -33 -2 -35 -33 -35 -46 0 -70 -28 -71 -84 -1 -65 22
-86 90 -83 l54 2 0 118 c0 110 -1 117 -20 117 -16 0 -20 -7 -20 -35z m-2 -116
c3 -39 0 -47 -17 -52 -26 -7 -44 16 -43 55 1 33 17 50 42 45 10 -1 16 -17 18
-48z"/>
<path d="M770 843 c-28 -35 -22 -99 10 -125 27 -22 79 -23 106 -4 27 21 7 40
-28 27 -19 -7 -31 -6 -47 5 -34 24 -25 34 34 34 52 0 55 1 55 25 0 63 -90 89
-130 38z m88 -20 c2 -9 -7 -13 -27 -13 -30 0 -39 9 -24 24 11 10 46 3 51 -11z"/>
<path d="M1112 847 c-28 -30 -29 -85 -1 -121 16 -20 29 -26 57 -26 42 1 74 20
63 38 -6 10 -15 10 -35 2 -34 -13 -32 -13 -50 6 -27 26 -18 34 39 34 43 0 55
3 55 16 0 19 -19 56 -34 66 -23 16 -73 8 -94 -15z m82 -22 c4 -12 -3 -15 -31
-15 -30 0 -34 2 -23 15 7 8 20 15 30 15 10 0 20 -7 24 -15z"/>
<path d="M1270 843 c-28 -35 -22 -99 10 -125 27 -22 79 -23 106 -4 26 20 6 43
-24 27 -25 -13 -49 -5 -63 20 -9 18 -5 19 46 19 52 0 55 1 55 25 0 63 -90 89
-130 38z m88 -20 c2 -9 -7 -13 -27 -13 -30 0 -39 9 -24 24 11 10 46 3 51 -11z"/>
<path d="M1420 784 c0 -77 2 -84 20 -84 18 0 20 7 20 59 0 40 5 63 15 71 27
23 45 -5 45 -71 0 -52 2 -59 20 -59 18 0 20 7 20 64 0 67 7 80 34 70 12 -5 16
-21 16 -70 0 -57 2 -64 20 -64 18 0 20 7 20 68 0 54 -4 72 -18 85 -21 19 -67
23 -77 7 -5 -7 -11 -8 -19 -1 -6 5 -35 10 -64 9 l-52 0 0 -84z"/>
<path d="M1691 844 c-46 -59 -10 -144 62 -144 41 0 77 23 61 40 -8 8 -18 8
-37 -1 -23 -10 -30 -9 -47 6 -31 28 -24 35 35 35 52 0 55 1 55 25 0 62 -90 89
-129 39z m87 -21 c2 -9 -7 -13 -27 -13 -30 0 -39 9 -24 24 11 10 46 3 51 -11z"/>
<path d="M617 609 c-62 -36 -60 -175 2 -209 29 -15 103 -12 128 5 18 13 22 13
33 0 8 -10 31 -14 71 -14 l59 1 0 48 c0 67 -17 109 -47 116 -33 9 -77 -7 -81
-28 -3 -14 4 -17 39 -15 52 2 63 -18 15 -27 -20 -4 -44 -18 -55 -32 -11 -14
-22 -20 -26 -14 -4 6 -17 4 -37 -6 -25 -13 -35 -13 -59 -3 -94 38 -45 181 51
148 24 -9 34 -9 43 0 30 31 -89 57 -136 30z m246 -156 c11 -10 -13 -33 -34
-33 -24 0 -25 16 -1 29 20 12 27 13 35 4z"/>
<path d="M940 473 c0 -76 2 -83 20 -83 18 0 20 7 20 66 0 62 1 65 23 62 20 -3
22 -9 25 -65 3 -54 6 -63 22 -63 16 0 19 9 22 63 3 54 5 62 23 62 18 0 20 -8
23 -62 3 -55 6 -63 22 -63 18 0 20 7 20 68 0 54 -4 72 -18 85 -21 19 -49 22
-72 7 -8 -5 -19 -5 -25 0 -6 5 -32 8 -58 7 l-47 -2 0 -82z"/>
<path d="M1190 443 c0 -106 1 -113 20 -113 16 0 20 7 20 30 0 27 3 30 33 30
47 0 77 34 77 88 0 61 -24 81 -94 79 l-56 -1 0 -113z m106 53 c8 -33 2 -57
-17 -69 -29 -18 -49 -1 -49 41 0 45 5 52 36 52 17 0 25 -7 30 -24z"/>
<path d="M1360 497 c0 -90 14 -107 91 -106 l60 1 -3 81 c-3 69 -6 82 -20 85
-16 3 -18 -5 -18 -55 0 -60 -11 -83 -41 -83 -22 0 -29 20 -29 86 0 47 -2 54
-20 54 -18 0 -20 -7 -20 -63z"/>
<path d="M1545 540 c-27 -29 -13 -66 31 -80 45 -15 39 -36 -10 -33 -31 2 -37
-1 -34 -15 4 -24 79 -29 102 -7 32 33 10 70 -59 99 -15 7 16 25 32 19 7 -3 21
-2 31 2 16 6 16 7 -2 21 -28 20 -70 17 -91 -6z"/>
<path d="M900 170 c0 -113 1 -120 20 -120 19 0 20 7 20 120 0 113 -1 120 -20
120 -19 0 -20 -7 -20 -120z"/>
<path d="M970 170 c0 -113 1 -120 20 -120 19 0 20 7 20 120 0 113 -1 120 -20
120 -19 0 -20 -7 -20 -120z"/>
<path d="M1590 170 c0 -112 1 -120 20 -120 16 0 19 8 22 62 3 63 3 63 33 63
30 0 30 0 33 -63 3 -54 6 -62 22 -62 18 0 20 7 20 58 0 83 -16 107 -68 106
l-42 -1 0 39 c0 31 -3 38 -20 38 -19 0 -20 -7 -20 -120z"/>
<path d="M1766 275 c-8 -22 1 -35 25 -35 15 0 20 6 17 22 -4 27 -33 36 -42 13z"/>
<path d="M580 165 c0 -107 1 -115 19 -115 17 0 20 8 23 47 l3 48 43 3 c28 2
42 8 42 18 0 10 -13 14 -46 14 -45 0 -45 0 -42 33 3 31 4 32 56 35 37 2 52 7
52 18 0 11 -16 14 -75 14 l-75 0 0 -115z"/>
<path d="M752 200 c-30 -28 -31 -101 -2 -130 24 -24 91 -27 110 -5 19 23 4 35
-30 23 -33 -11 -60 2 -60 28 0 10 15 14 56 14 l56 0 -6 28 c-14 58 -82 81
-124 42z m78 -25 c11 -13 7 -15 -25 -15 -32 0 -36 2 -25 15 7 8 18 15 25 15 7
0 18 -7 25 -15z"/>
<path d="M1062 200 c-30 -28 -31 -101 -2 -130 24 -24 77 -26 107 -5 44 31 35
131 -12 149 -32 12 -71 6 -93 -14z m83 -34 c30 -46 -12 -108 -50 -76 -21 18
-19 77 3 89 25 15 30 14 47 -13z"/>
<path d="M1203 206 c3 -7 15 -46 27 -85 16 -55 25 -71 40 -71 13 0 23 14 36
52 l17 53 17 -50 c12 -35 23 -51 37 -53 16 -2 23 7 36 50 8 29 20 68 26 86 9
31 8 33 -12 30 -16 -2 -25 -15 -36 -53 l-14 -50 -17 50 c-12 36 -22 50 -35 50
-13 0 -23 -14 -35 -50 l-17 -50 -17 53 c-14 40 -22 52 -38 52 -13 0 -18 -5
-15 -14z"/>
<path d="M1465 196 c-21 -31 -6 -63 36 -78 16 -5 29 -17 29 -25 0 -12 -8 -13
-40 -8 -32 5 -40 4 -40 -8 0 -29 78 -38 104 -11 29 29 20 62 -24 84 -43 22
-45 46 -3 36 32 -9 48 1 32 20 -20 24 -76 18 -94 -10z"/>
<path d="M1770 135 c0 -78 2 -85 20 -85 18 0 20 7 20 85 0 78 -2 85 -20 85
-18 0 -20 -7 -20 -85z"/>
<path d="M1840 108 c0 -101 1 -108 20 -108 15 0 20 7 20 25 0 22 4 25 33 25
47 0 77 34 77 88 0 61 -24 81 -94 79 l-56 -1 0 -108z m98 70 c17 -17 15 -73
-3 -88 -8 -6 -23 -9 -35 -5 -27 8 -29 79 -2 94 22 13 26 13 40 -1z"/>
</g>
</svg>
