<svg xmlns="http://www.w3.org/2000/svg" viewBox="0 0 325 342" role="img" aria-label="Wesleyan RCF — flame with a dove, in a broken ring, over a graduation cap">
  <!-- The OFFICIAL RCF logo icon, recolored to glow warm. Recreated from the
       official vector the parish supplied (full-color-logo-stacked-dark.jpg.svg,
       paths 0–5). The mark is a flame (with a dove inside it) set in a broken
       ring, over a graduation cap — Redeemed *Campus* Fellowship. The "rcf"
       wordmark + tagline are part of the full lockup, omitted from this icon. -->
  <defs>
    <linearGradient id="rcf-flameGrad" x1="0" y1="0" x2="0" y2="1">
      <stop offset="0" stop-color="#e8481a" />
      <stop offset="0.5" stop-color="#f4892a" />
      <stop offset="1" stop-color="#ffc94f" />
    </linearGradient>
  </defs>
  <g transform="translate(0,498) scale(0.1,-0.1)">
    <!-- broken ring -->
    <path d="M1215 4266 c-604 -158 -1063 -650 -1187 -1271 -18 -89 -22 -146 -23 -300 0 -220 15 -321 75 -506 66 -203 152 -361 286 -527 l66 -83 25 54 24 54 -64 85 c-140 186 -226 374 -279 609 -20 90 -23 131 -23 309 0 230 10 294 73 485 94 286 288 552 537 738 112 84 337 197 469 235 l100 29 18 54 c9 30 18 55 18 57 0 5 -31 0 -115 -22z" fill="#d8b65c" />
    <path d="M2182 4163 l30 -68 97 -47 c300 -144 585 -446 716 -757 43 -102 79 -220 102 -336 24 -124 24 -405 0 -530 -40 -207 -126 -418 -236 -580 -29 -42 -46 -77 -41 -80 6 -4 20 -25 31 -47 l21 -42 19 25 c152 193 267 458 310 711 18 107 21 150 16 323 -6 218 -20 307 -77 478 -143 428 -480 793 -897 971 -132 57 -127 58 -91 -21z" fill="#d8b65c" />
    <!-- flame -->
    <path d="M1392 4959 c53 -142 72 -272 64 -444 -8 -183 -27 -280 -70 -372 -31 -64 -56 -95 -167 -207 -240 -240 -365 -437 -431 -676 -20 -74 -23 -107 -23 -260 1 -148 4 -187 23 -255 35 -131 118 -315 141 -315 4 0 23 5 40 11 29 10 32 15 26 38 -17 66 -17 241 0 316 24 109 91 234 177 334 108 124 103 113 103 215 0 50 -3 106 -7 124 -4 17 -4 32 1 32 8 0 54 -54 122 -143 l17 -21 47 38 c26 22 56 48 66 60 34 36 66 118 89 225 19 87 22 123 17 215 -3 61 -9 122 -12 136 -13 52 218 -215 326 -377 29 -43 53 -79 55 -81 1 -2 26 4 55 12 29 9 54 16 56 16 1 0 -11 -26 -28 -58 l-30 -58 55 -105 c147 -279 238 -608 219 -789 -4 -41 -8 -79 -8 -84 0 -5 19 -17 42 -27 l42 -18 35 72 c132 277 143 570 31 902 -150 451 -445 923 -824 1318 -112 117 -257 249 -249 226z" fill="url(#rcf-flameGrad)" />
    <!-- graduation cap -->
    <path d="M1558 2665 c-67 -29 -274 -117 -458 -195 -184 -78 -341 -145 -348 -149 -8 -5 51 -31 146 -65 l159 -58 39 20 c253 126 584 161 849 90 88 -24 232 -79 283 -108 l32 -20 184 68 c102 37 184 68 183 68 -2 2 -762 325 -879 374 l-66 28 -124 -53z" fill="#ecd190" />
    <path d="M1530 2270 c-120 -9 -191 -24 -307 -61 l-93 -31 0 -139 c0 -76 1 -139 3 -139 2 0 43 14 93 30 137 47 247 63 424 63 175 0 256 -14 415 -69 55 -19 108 -38 118 -41 16 -5 17 6 17 134 l0 139 -72 28 c-113 44 -252 76 -378 86 -63 5 -117 9 -120 8 -3 0 -48 -4 -100 -8z" fill="#ecd190" />
    <!-- dove inside the flame -->
    <path d="M1638 3013 c-14 -3 -15 -9 -8 -29 13 -34 15 -31 -25 -44 -19 -6 -35 -16 -35 -21 0 -5 -18 -12 -40 -15 -34 -6 -38 -9 -28 -21 6 -8 29 -24 51 -35 33 -16 44 -18 65 -9 21 10 28 9 46 -8 21 -20 22 -20 35 -2 11 14 22 17 57 13 37 -4 51 0 87 24 l42 28 -39 8 c-22 5 -44 12 -50 17 -6 4 -23 11 -38 15 -30 7 -35 24 -18 57 9 17 7 19 -17 19 -15 0 -37 2 -48 4 -11 2 -28 2 -37 -1z" fill="#fff8ec" />
  </g>
</svg>
