<svg xmlns="http://www.w3.org/2000/svg" viewBox="0 0 348 104">
  <!-- RCCG Jesus House — horizontal lockup -->
  <rect width="348" height="104" fill="#FFFFFF"/>
  <g transform="translate(14,20)">
    <rect width="64" height="64" rx="12" fill="#FAF7EF"/>
    <polygon points="12,20 32,9 52,20" fill="#1C2B4A"/>
    <path d="M 27.5,19 A 4.5 4.5 0 0 1 36.5,19 Z" fill="#C9A227"/>
    <rect x="14" y="20" width="36" height="3.5" fill="#1C2B4A"/>
    <path d="M17 23.5 H47 V56.5 H43.5 V27 H20.5 V56.5 H17 Z" fill="#1C2B4A"/>
    <rect x="20.5" y="27" width="23" height="29.5" fill="#C9A227"/>
    <rect x="14" y="56.5" width="36" height="3" fill="#1C2B4A"/>
    <rect x="11" y="59.5" width="42" height="2.5" fill="#1C2B4A"/>
    <polygon points="33,56.5 43.5,56.5 49,62 29.5,62" fill="#C9A227"/>
    <polygon points="20.5,27 34,29.4 34,54.6 20.5,56.5" fill="#B3282D"/>
    <polygon points="23,31.4 26.4,32.0 26.4,50.7 23,51.2" fill="#8C2125"/>
    <polygon points="28.1,32.4 31.5,33.0 31.5,49.9 28.1,50.4" fill="#8C2125"/>
    <circle cx="32.6" cy="42.5" r="1" fill="#FAF7EF"/>
  </g>
  <text x="98" y="39" font-family="'Avenir Next','Helvetica Neue',Helvetica,Arial,sans-serif"
        font-size="12" font-weight="600" letter-spacing="4.5" fill="#B3282D">RCCG</text>
  <text x="97" y="67" font-family="'Iowan Old Style','Palatino Linotype',Palatino,Georgia,serif"
        font-size="29" fill="#1C2B4A">Jesus House</text>
  <text x="98" y="86" font-family="'Avenir Next','Helvetica Neue',Helvetica,Arial,sans-serif"
        font-size="9.5" letter-spacing="2.7" fill="#1C2B4A" opacity="0.68">MIDDLETOWN, CONNECTICUT</text>
</svg>
